<svg xmlns="http://www.w3.org/2000/svg" version="1.1" xmlns:xlink="http://www.w3.org/1999/xlink" xmlns:svgjs="http://svgjs.com/svgjs" width="1440" height="560" preserveAspectRatio="none" viewBox="0 0 1440 560"><g mask="url(&quot;#SvgjsMask1016&quot;)" fill="none"><rect width="1440" height="560" x="0" y="0" fill="rgba(254, 255, 239, 1)"></rect><path d="M-91.59 390.56L-91.59 390.56" stroke="rgba(212, 238, 63, 1)" stroke-width="1.5"></path><path d="M-91.59 390.56L-56.81 509.83" stroke="rgba(212, 238, 63, 1)" stroke-width="1.5"></path><path d="M-91.59 390.56L40.77 488.51" stroke="rgba(212, 238, 63, 1)" stroke-width="1.5"></path><path d="M-91.59 390.56L84.47 396.59" stroke="rgba(212, 238, 63, 1)" stroke-width="1.5"></path><path d="M-91.59 390.56L-54.27 662.15" stroke="rgba(212, 238, 63, 1)" stroke-width="1.5"></path><path d="M-91.59 390.56L196.11 355.23" stroke="rgba(212, 238, 63, 1)" stroke-width="1.5"></path><path d="M-56.81 509.83L-56.81 509.83" stroke="rgba(212, 238, 63, 1)" stroke-width="1.5"></path><path d="M-56.81 509.83L40.77 488.51" stroke="rgba(212, 238, 63, 1)" stroke-width="1.5"></path><path d="M-56.81 509.83L-54.27 662.15" stroke="rgba(212, 238, 63, 1)" stroke-width="1.5"></path><path d="M-56.81 509.83L84.47 396.59" stroke="rgba(212, 238, 63, 1)" stroke-width="1.5"></path><path d="M-56.81 509.83L79.37 667.32" stroke="rgba(212, 238, 63, 1)" stroke-width="1.5"></path><path d="M-54.27 662.15L-54.27 662.15" stroke="rgba(212, 238, 63, 1)" stroke-width="1.5"></path><path d="M-54.27 662.15L79.37 667.32" stroke="rgba(212, 238, 63, 1)" stroke-width="1.5"></path><path d="M-54.27 662.15L40.77 488.51" stroke="rgba(212, 238, 63, 1)" stroke-width="1.5"></path><path d="M84.47 396.59L84.47 396.59" stroke="rgba(212, 238, 63, 1)" stroke-width="1.5"></path><path d="M84.47 396.59L40.77 488.51" stroke="rgba(212, 238, 63, 1)" stroke-width="1.5"></path><path d="M84.47 396.59L196.11 355.23" stroke="rgba(212, 238, 63, 1)" stroke-width="1.5"></path><path d="M84.47 396.59L236.96 543.44" stroke="rgba(212, 238, 63, 1)" stroke-width="1.5"></path><path d="M84.47 396.59L79.37 667.32" stroke="rgba(212, 238, 63, 1)" stroke-width="1.5"></path><path d="M40.77 488.51L40.77 488.51" stroke="rgba(212, 238, 63, 1)" stroke-width="1.5"></path><path d="M40.77 488.51L79.37 667.32" stroke="rgba(212, 238, 63, 1)" stroke-width="1.5"></path><path d="M40.77 488.51L236.96 543.44" stroke="rgba(212, 238, 63, 1)" stroke-width="1.5"></path><path d="M79.37 667.32L79.37 667.32" stroke="rgba(212, 238, 63, 1)" stroke-width="1.5"></path><path d="M79.37 667.32L240.33 711.92" stroke="rgba(212, 238, 63, 1)" stroke-width="1.5"></path><path d="M196.11 355.23L196.11 355.23" stroke="rgba(212, 238, 63, 1)" stroke-width="1.5"></path><path d="M196.11 355.23L379.35 404.87" stroke="rgba(212, 238, 63, 1)" stroke-width="1.5"></path><path d="M196.11 355.23L236.96 543.44" stroke="rgba(212, 238, 63, 1)" stroke-width="1.5"></path><path d="M236.96 543.44L236.96 543.44" stroke="rgba(212, 238, 63, 1)" stroke-width="1.5"></path><path d="M236.96 543.44L240.33 711.92" stroke="rgba(212, 238, 63, 1)" stroke-width="1.5"></path><path d="M236.96 543.44L362.01 673.96" stroke="rgba(212, 238, 63, 1)" stroke-width="1.5"></path><path d="M240.33 711.92L240.33 711.92" stroke="rgba(212, 238, 63, 1)" stroke-width="1.5"></path><path d="M240.33 711.92L362.01 673.96" stroke="rgba(212, 238, 63, 1)" stroke-width="1.5"></path><path d="M240.33 711.92L-54.27 662.15" stroke="rgba(212, 238, 63, 1)" stroke-width="1.5"></path><path d="M240.33 711.92L40.77 488.51" stroke="rgba(212, 238, 63, 1)" stroke-width="1.5"></path><path d="M379.35 404.87L379.35 404.87" stroke="rgba(212, 238, 63, 1)" stroke-width="1.5"></path><path d="M379.35 404.87L501.21 493.51" stroke="rgba(212, 238, 63, 1)" stroke-width="1.5"></path><path d="M379.35 404.87L528.93 339.56" stroke="rgba(212, 238, 63, 1)" stroke-width="1.5"></path><path d="M362.01 673.96L362.01 673.96" stroke="rgba(212, 238, 63, 1)" stroke-width="1.5"></path><path d="M362.01 673.96L501.21 493.51" stroke="rgba(212, 238, 63, 1)" stroke-width="1.5"></path><path d="M362.01 673.96L379.35 404.87" stroke="rgba(212, 238, 63, 1)" stroke-width="1.5"></path><path d="M528.93 339.56L528.93 339.56" stroke="rgba(212, 238, 63, 1)" stroke-width="1.5"></path><path d="M528.93 339.56L501.21 493.51" stroke="rgba(212, 238, 63, 1)" stroke-width="1.5"></path><path d="M528.93 339.56L672.38 410.38" stroke="rgba(212, 238, 63, 1)" stroke-width="1.5"></path><path d="M501.21 493.51L501.21 493.51" stroke="rgba(212, 238, 63, 1)" stroke-width="1.5"></path><path d="M501.21 493.51L657.8 522.18" stroke="rgba(212, 238, 63, 1)" stroke-width="1.5"></path><path d="M703.75 229.68L703.75 229.68" stroke="rgba(212, 238, 63, 1)" stroke-width="1.5"></path><path d="M703.75 229.68L672.38 410.38" stroke="rgba(212, 238, 63, 1)" stroke-width="1.5"></path><path d="M703.75 229.68L801.39 394.97" stroke="rgba(212, 238, 63, 1)" stroke-width="1.5"></path><path d="M703.75 229.68L528.93 339.56" stroke="rgba(212, 238, 63, 1)" stroke-width="1.5"></path><path d="M672.38 410.38L672.38 410.38" stroke="rgba(212, 238, 63, 1)" stroke-width="1.5"></path><path d="M672.38 410.38L657.8 522.18" stroke="rgba(212, 238, 63, 1)" stroke-width="1.5"></path><path d="M672.38 410.38L801.39 394.97" stroke="rgba(212, 238, 63, 1)" stroke-width="1.5"></path><path d="M657.8 522.18L657.8 522.18" stroke="rgba(212, 238, 63, 1)" stroke-width="1.5"></path><path d="M646.59 681.56L646.59 681.56" stroke="rgba(212, 238, 63, 1)" stroke-width="1.5"></path><path d="M646.59 681.56L657.8 522.18" stroke="rgba(212, 238, 63, 1)" stroke-width="1.5"></path><path d="M646.59 681.56L849.96 686.4" stroke="rgba(212, 238, 63, 1)" stroke-width="1.5"></path><path d="M646.59 681.56L501.21 493.51" stroke="rgba(212, 238, 63, 1)" stroke-width="1.5"></path><path d="M801.39 394.97L801.39 394.97" stroke="rgba(212, 238, 63, 1)" stroke-width="1.5"></path><path d="M801.39 394.97L860.31 522.28" stroke="rgba(212, 238, 63, 1)" stroke-width="1.5"></path><path d="M801.39 394.97L959.2 405.09" stroke="rgba(212, 238, 63, 1)" stroke-width="1.5"></path><path d="M801.39 394.97L940.72 524.84" stroke="rgba(212, 238, 63, 1)" stroke-width="1.5"></path><path d="M801.39 394.97L657.8 522.18" stroke="rgba(212, 238, 63, 1)" stroke-width="1.5"></path><path d="M860.31 522.28L860.31 522.28" stroke="rgba(212, 238, 63, 1)" stroke-width="1.5"></path><path d="M860.31 522.28L940.72 524.84" stroke="rgba(212, 238, 63, 1)" stroke-width="1.5"></path><path d="M860.31 522.28L959.2 405.09" stroke="rgba(212, 238, 63, 1)" stroke-width="1.5"></path><path d="M849.96 686.4L849.96 686.4" stroke="rgba(212, 238, 63, 1)" stroke-width="1.5"></path><path d="M849.96 686.4L860.31 522.28" stroke="rgba(212, 238, 63, 1)" stroke-width="1.5"></path><path d="M849.96 686.4L1012.25 638.76" stroke="rgba(212, 238, 63, 1)" stroke-width="1.5"></path><path d="M849.96 686.4L940.72 524.84" stroke="rgba(212, 238, 63, 1)" stroke-width="1.5"></path><path d="M980.38 -70.59L980.38 -70.59" stroke="rgba(212, 238, 63, 1)" stroke-width="1.5"></path><path d="M980.38 -70.59L1112.55 -87.95" stroke="rgba(212, 238, 63, 1)" stroke-width="1.5"></path><path d="M980.38 -70.59L980.13 87.71" stroke="rgba(212, 238, 63, 1)" stroke-width="1.5"></path><path d="M980.13 87.71L980.13 87.71" stroke="rgba(212, 238, 63, 1)" stroke-width="1.5"></path><path d="M980.13 87.71L1110.55 72.22" stroke="rgba(212, 238, 63, 1)" stroke-width="1.5"></path><path d="M980.13 87.71L1011.32 248.5" stroke="rgba(212, 238, 63, 1)" stroke-width="1.5"></path><path d="M980.13 87.71L1112.55 -87.95" stroke="rgba(212, 238, 63, 1)" stroke-width="1.5"></path><path d="M980.13 87.71L1242.65 107.07" stroke="rgba(212, 238, 63, 1)" stroke-width="1.5"></path><path d="M980.13 87.71L1100.79 372.65" stroke="rgba(212, 238, 63, 1)" stroke-width="1.5"></path><path d="M1011.32 248.5L1011.32 248.5" stroke="rgba(212, 238, 63, 1)" stroke-width="1.5"></path><path d="M1011.32 248.5L1100.79 372.65" stroke="rgba(212, 238, 63, 1)" stroke-width="1.5"></path><path d="M1011.32 248.5L959.2 405.09" stroke="rgba(212, 238, 63, 1)" stroke-width="1.5"></path><path d="M959.2 405.09L959.2 405.09" stroke="rgba(212, 238, 63, 1)" stroke-width="1.5"></path><path d="M959.2 405.09L940.72 524.84" stroke="rgba(212, 238, 63, 1)" stroke-width="1.5"></path><path d="M959.2 405.09L1100.79 372.65" stroke="rgba(212, 238, 63, 1)" stroke-width="1.5"></path><path d="M940.72 524.84L940.72 524.84" stroke="rgba(212, 238, 63, 1)" stroke-width="1.5"></path><path d="M940.72 524.84L1012.25 638.76" stroke="rgba(212, 238, 63, 1)" stroke-width="1.5"></path><path d="M940.72 524.84L1127.13 541.97" stroke="rgba(212, 238, 63, 1)" stroke-width="1.5"></path><path d="M1012.25 638.76L1012.25 638.76" stroke="rgba(212, 238, 63, 1)" stroke-width="1.5"></path><path d="M1012.25 638.76L1107.89 668" stroke="rgba(212, 238, 63, 1)" stroke-width="1.5"></path><path d="M1012.25 638.76L1127.13 541.97" stroke="rgba(212, 238, 63, 1)" stroke-width="1.5"></path><path d="M1112.55 -87.95L1112.55 -87.95" stroke="rgba(212, 238, 63, 1)" stroke-width="1.5"></path><path d="M1110.55 72.22L1110.55 72.22" stroke="rgba(212, 238, 63, 1)" stroke-width="1.5"></path><path d="M1110.55 72.22L1242.65 107.07" stroke="rgba(212, 238, 63, 1)" stroke-width="1.5"></path><path d="M1110.55 72.22L1112.55 -87.95" stroke="rgba(212, 238, 63, 1)" stroke-width="1.5"></path><path d="M1110.55 72.22L980.38 -70.59" stroke="rgba(212, 238, 63, 1)" stroke-width="1.5"></path><path d="M1110.55 72.22L1011.32 248.5" stroke="rgba(212, 238, 63, 1)" stroke-width="1.5"></path><path d="M1100.79 372.65L1100.79 372.65" stroke="rgba(212, 238, 63, 1)" stroke-width="1.5"></path><path d="M1100.79 372.65L1127.13 541.97" stroke="rgba(212, 238, 63, 1)" stroke-width="1.5"></path><path d="M1127.13 541.97L1127.13 541.97" stroke="rgba(212, 238, 63, 1)" stroke-width="1.5"></path><path d="M1127.13 541.97L1107.89 668" stroke="rgba(212, 238, 63, 1)" stroke-width="1.5"></path><path d="M1127.13 541.97L1299.14 524.1" stroke="rgba(212, 238, 63, 1)" stroke-width="1.5"></path><path d="M1107.89 668L1107.89 668" stroke="rgba(212, 238, 63, 1)" stroke-width="1.5"></path><path d="M1107.89 668L1273.28 703.76" stroke="rgba(212, 238, 63, 1)" stroke-width="1.5"></path><path d="M1257.1 -85.86L1257.1 -85.86" stroke="rgba(212, 238, 63, 1)" stroke-width="1.5"></path><path d="M1257.1 -85.86L1112.55 -87.95" stroke="rgba(212, 238, 63, 1)" stroke-width="1.5"></path><path d="M1257.1 -85.86L1445.01 -65.35" stroke="rgba(212, 238, 63, 1)" stroke-width="1.5"></path><path d="M1257.1 -85.86L1242.65 107.07" stroke="rgba(212, 238, 63, 1)" stroke-width="1.5"></path><path d="M1257.1 -85.86L1110.55 72.22" stroke="rgba(212, 238, 63, 1)" stroke-width="1.5"></path><path d="M1257.1 -85.86L1439.1 101.2" stroke="rgba(212, 238, 63, 1)" stroke-width="1.5"></path><path d="M1257.1 -85.86L980.38 -70.59" stroke="rgba(212, 238, 63, 1)" stroke-width="1.5"></path><path d="M1242.65 107.07L1242.65 107.07" stroke="rgba(212, 238, 63, 1)" stroke-width="1.5"></path><path d="M1242.65 107.07L1272.83 198.79" stroke="rgba(212, 238, 63, 1)" stroke-width="1.5"></path><path d="M1272.83 198.79L1272.83 198.79" stroke="rgba(212, 238, 63, 1)" stroke-width="1.5"></path><path d="M1272.83 198.79L1450.18 206.53" stroke="rgba(212, 238, 63, 1)" stroke-width="1.5"></path><path d="M1272.83 198.79L1439.1 101.2" stroke="rgba(212, 238, 63, 1)" stroke-width="1.5"></path><path d="M1272.83 198.79L1272.09 395.66" stroke="rgba(212, 238, 63, 1)" stroke-width="1.5"></path><path d="M1272.83 198.79L1110.55 72.22" stroke="rgba(212, 238, 63, 1)" stroke-width="1.5"></path><path d="M1272.09 395.66L1272.09 395.66" stroke="rgba(212, 238, 63, 1)" stroke-width="1.5"></path><path d="M1272.09 395.66L1299.14 524.1" stroke="rgba(212, 238, 63, 1)" stroke-width="1.5"></path><path d="M1272.09 395.66L1100.79 372.65" stroke="rgba(212, 238, 63, 1)" stroke-width="1.5"></path><path d="M1272.09 395.66L1446.35 346.45" stroke="rgba(212, 238, 63, 1)" stroke-width="1.5"></path><path d="M1272.09 395.66L1127.13 541.97" stroke="rgba(212, 238, 63, 1)" stroke-width="1.5"></path><path d="M1299.14 524.1L1299.14 524.1" stroke="rgba(212, 238, 63, 1)" stroke-width="1.5"></path><path d="M1299.14 524.1L1273.28 703.76" stroke="rgba(212, 238, 63, 1)" stroke-width="1.5"></path><path d="M1299.14 524.1L1440.75 637.72" stroke="rgba(212, 238, 63, 1)" stroke-width="1.5"></path><path d="M1299.14 524.1L1446.35 346.45" stroke="rgba(212, 238, 63, 1)" stroke-width="1.5"></path><path d="M1299.14 524.1L1107.89 668" stroke="rgba(212, 238, 63, 1)" stroke-width="1.5"></path><path d="M1273.28 703.76L1273.28 703.76" stroke="rgba(212, 238, 63, 1)" stroke-width="1.5"></path><path d="M1273.28 703.76L1440.75 637.72" stroke="rgba(212, 238, 63, 1)" stroke-width="1.5"></path><path d="M1273.28 703.76L1127.13 541.97" stroke="rgba(212, 238, 63, 1)" stroke-width="1.5"></path><path d="M1273.28 703.76L1012.25 638.76" stroke="rgba(212, 238, 63, 1)" stroke-width="1.5"></path><path d="M1273.28 703.76L1553.28 674.14" stroke="rgba(212, 238, 63, 1)" stroke-width="1.5"></path><path d="M1445.01 -65.35L1445.01 -65.35" stroke="rgba(212, 238, 63, 1)" stroke-width="1.5"></path><path d="M1445.01 -65.35L1600.42 -86.5" stroke="rgba(212, 238, 63, 1)" stroke-width="1.5"></path><path d="M1445.01 -65.35L1439.1 101.2" stroke="rgba(212, 238, 63, 1)" stroke-width="1.5"></path><path d="M1445.01 -65.35L1589.05 97.93" stroke="rgba(212, 238, 63, 1)" stroke-width="1.5"></path><path d="M1445.01 -65.35L1242.65 107.07" stroke="rgba(212, 238, 63, 1)" stroke-width="1.5"></path><path d="M1445.01 -65.35L1450.18 206.53" stroke="rgba(212, 238, 63, 1)" stroke-width="1.5"></path><path d="M1439.1 101.2L1439.1 101.2" stroke="rgba(212, 238, 63, 1)" stroke-width="1.5"></path><path d="M1439.1 101.2L1450.18 206.53" stroke="rgba(212, 238, 63, 1)" stroke-width="1.5"></path><path d="M1439.1 101.2L1589.05 97.93" stroke="rgba(212, 238, 63, 1)" stroke-width="1.5"></path><path d="M1439.1 101.2L1242.65 107.07" stroke="rgba(212, 238, 63, 1)" stroke-width="1.5"></path><path d="M1450.18 206.53L1450.18 206.53" stroke="rgba(212, 238, 63, 1)" stroke-width="1.5"></path><path d="M1450.18 206.53L1569.52 251.46" stroke="rgba(212, 238, 63, 1)" stroke-width="1.5"></path><path d="M1450.18 206.53L1446.35 346.45" stroke="rgba(212, 238, 63, 1)" stroke-width="1.5"></path><path d="M1450.18 206.53L1589.05 97.93" stroke="rgba(212, 238, 63, 1)" stroke-width="1.5"></path><path d="M1446.35 346.45L1446.35 346.45" stroke="rgba(212, 238, 63, 1)" stroke-width="1.5"></path><path d="M1446.35 346.45L1557.8 363.96" stroke="rgba(212, 238, 63, 1)" stroke-width="1.5"></path><path d="M1446.35 346.45L1569.52 251.46" stroke="rgba(212, 238, 63, 1)" stroke-width="1.5"></path><path d="M1440.75 637.72L1440.75 637.72" stroke="rgba(212, 238, 63, 1)" stroke-width="1.5"></path><path d="M1440.75 637.72L1553.28 674.14" stroke="rgba(212, 238, 63, 1)" stroke-width="1.5"></path><path d="M1600.42 -86.5L1600.42 -86.5" stroke="rgba(212, 238, 63, 1)" stroke-width="1.5"></path><path d="M1600.42 -86.5L1589.05 97.93" stroke="rgba(212, 238, 63, 1)" stroke-width="1.5"></path><path d="M1600.42 -86.5L1439.1 101.2" stroke="rgba(212, 238, 63, 1)" stroke-width="1.5"></path><path d="M1600.42 -86.5L1450.18 206.53" stroke="rgba(212, 238, 63, 1)" stroke-width="1.5"></path><path d="M1600.42 -86.5L1569.52 251.46" stroke="rgba(212, 238, 63, 1)" stroke-width="1.5"></path><path d="M1589.05 97.93L1589.05 97.93" stroke="rgba(212, 238, 63, 1)" stroke-width="1.5"></path><path d="M1589.05 97.93L1569.52 251.46" stroke="rgba(212, 238, 63, 1)" stroke-width="1.5"></path><path d="M1569.52 251.46L1569.52 251.46" stroke="rgba(212, 238, 63, 1)" stroke-width="1.5"></path><path d="M1569.52 251.46L1557.8 363.96" stroke="rgba(212, 238, 63, 1)" stroke-width="1.5"></path><path d="M1557.8 363.96L1557.8 363.96" stroke="rgba(212, 238, 63, 1)" stroke-width="1.5"></path><path d="M1557.8 363.96L1560.57 498.56" stroke="rgba(212, 238, 63, 1)" stroke-width="1.5"></path><path d="M1557.8 363.96L1450.18 206.53" stroke="rgba(212, 238, 63, 1)" stroke-width="1.5"></path><path d="M1557.8 363.96L1589.05 97.93" stroke="rgba(212, 238, 63, 1)" stroke-width="1.5"></path><path d="M1557.8 363.96L1272.09 395.66" stroke="rgba(212, 238, 63, 1)" stroke-width="1.5"></path><path d="M1560.57 498.56L1560.57 498.56" stroke="rgba(212, 238, 63, 1)" stroke-width="1.5"></path><path d="M1560.57 498.56L1553.28 674.14" stroke="rgba(212, 238, 63, 1)" stroke-width="1.5"></path><path d="M1553.28 674.14L1553.28 674.14" stroke="rgba(212, 238, 63, 1)" stroke-width="1.5"></path><circle r="5" cx="-91.59" cy="390.56" fill="rgba(212, 238, 63, 1)"></circle><circle r="5" cx="-56.81" cy="509.83" fill="rgba(212, 238, 63, 1)"></circle><circle r="5" cx="-54.27" cy="662.15" fill="rgba(212, 238, 63, 1)"></circle><circle r="5" cx="84.47" cy="396.59" fill="rgba(212, 238, 63, 1)"></circle><circle r="5" cx="40.77" cy="488.51" fill="rgba(212, 238, 63, 1)"></circle><circle r="5" cx="79.37" cy="667.32" fill="rgba(212, 238, 63, 1)"></circle><circle r="5" cx="196.11" cy="355.23" fill="rgba(212, 238, 63, 1)"></circle><circle r="5" cx="236.96" cy="543.44" fill="rgba(212, 238, 63, 1)"></circle><circle r="5" cx="240.33" cy="711.92" fill="rgba(212, 238, 63, 1)"></circle><circle r="5" cx="379.35" cy="404.87" fill="rgba(212, 238, 63, 1)"></circle><circle r="5" cx="362.01" cy="673.96" fill="rgba(212, 238, 63, 1)"></circle><circle r="5" cx="528.93" cy="339.56" fill="rgba(212, 238, 63, 1)"></circle><circle r="5" cx="501.21" cy="493.51" fill="rgba(212, 238, 63, 1)"></circle><circle r="5" cx="703.75" cy="229.68" fill="rgba(212, 238, 63, 1)"></circle><circle r="5" cx="672.38" cy="410.38" fill="rgba(212, 238, 63, 1)"></circle><circle r="5" cx="657.8" cy="522.18" fill="rgba(212, 238, 63, 1)"></circle><circle r="5" cx="646.59" cy="681.56" fill="rgba(212, 238, 63, 1)"></circle><circle r="5" cx="801.39" cy="394.97" fill="rgba(212, 238, 63, 1)"></circle><circle r="5" cx="860.31" cy="522.28" fill="rgba(212, 238, 63, 1)"></circle><circle r="5" cx="849.96" cy="686.4" fill="rgba(212, 238, 63, 1)"></circle><circle r="5" cx="980.38" cy="-70.59" fill="rgba(212, 238, 63, 1)"></circle><circle r="5" cx="980.13" cy="87.71" fill="rgba(212, 238, 63, 1)"></circle><circle r="5" cx="1011.32" cy="248.5" fill="rgba(212, 238, 63, 1)"></circle><circle r="5" cx="959.2" cy="405.09" fill="rgba(212, 238, 63, 1)"></circle><circle r="5" cx="940.72" cy="524.84" fill="rgba(212, 238, 63, 1)"></circle><circle r="5" cx="1012.25" cy="638.76" fill="rgba(212, 238, 63, 1)"></circle><circle r="5" cx="1112.55" cy="-87.95" fill="rgba(212, 238, 63, 1)"></circle><circle r="5" cx="1110.55" cy="72.22" fill="rgba(212, 238, 63, 1)"></circle><circle r="5" cx="1100.79" cy="372.65" fill="rgba(212, 238, 63, 1)"></circle><circle r="5" cx="1127.13" cy="541.97" fill="rgba(212, 238, 63, 1)"></circle><circle r="5" cx="1107.89" cy="668" fill="rgba(212, 238, 63, 1)"></circle><circle r="5" cx="1257.1" cy="-85.86" fill="rgba(212, 238, 63, 1)"></circle><circle r="5" cx="1242.65" cy="107.07" fill="rgba(212, 238, 63, 1)"></circle><circle r="5" cx="1272.83" cy="198.79" fill="rgba(212, 238, 63, 1)"></circle><circle r="5" cx="1272.09" cy="395.66" fill="rgba(212, 238, 63, 1)"></circle><circle r="5" cx="1299.14" cy="524.1" fill="rgba(212, 238, 63, 1)"></circle><circle r="5" cx="1273.28" cy="703.76" fill="rgba(212, 238, 63, 1)"></circle><circle r="5" cx="1445.01" cy="-65.35" fill="rgba(212, 238, 63, 1)"></circle><circle r="5" cx="1439.1" cy="101.2" fill="rgba(212, 238, 63, 1)"></circle><circle r="5" cx="1450.18" cy="206.53" fill="rgba(212, 238, 63, 1)"></circle><circle r="5" cx="1446.35" cy="346.45" fill="rgba(212, 238, 63, 1)"></circle><circle r="5" cx="1440.75" cy="637.72" fill="rgba(212, 238, 63, 1)"></circle><circle r="5" cx="1600.42" cy="-86.5" fill="rgba(212, 238, 63, 1)"></circle><circle r="5" cx="1589.05" cy="97.93" fill="rgba(212, 238, 63, 1)"></circle><circle r="5" cx="1569.52" cy="251.46" fill="rgba(212, 238, 63, 1)"></circle><circle r="5" cx="1557.8" cy="363.96" fill="rgba(212, 238, 63, 1)"></circle><circle r="5" cx="1560.57" cy="498.56" fill="rgba(212, 238, 63, 1)"></circle><circle r="5" cx="1553.28" cy="674.14" fill="rgba(212, 238, 63, 1)"></circle><path d="M-103.7 654.86L-103.7 654.86" stroke="hsl(0, 0%, 0%)" stroke-width="1.5"></path><path d="M-103.7 654.86L57.55 708.19" stroke="hsl(0, 0%, 0%)" stroke-width="1.5"></path><path d="M237.78 488.24L237.78 488.24" stroke="hsl(0, 0%, 0%)" stroke-width="1.5"></path><path d="M237.78 488.24L90.07 554.99" stroke="hsl(0, 0%, 0%)" stroke-width="1.5"></path><path d="M237.78 488.24L260.72 688.83" stroke="hsl(0, 0%, 0%)" stroke-width="1.5"></path><path d="M260.72 688.83L260.72 688.83" stroke="hsl(0, 0%, 0%)" stroke-width="1.5"></path><path d="M260.72 688.83L351.49 676.08" stroke="hsl(0, 0%, 0%)" stroke-width="1.5"></path><path d="M652.34 642.51L652.34 642.51" stroke="hsl(0, 0%, 0%)" stroke-width="1.5"></path><path d="M652.34 642.51L706.54 527.91" stroke="hsl(0, 0%, 0%)" stroke-width="1.5"></path><path d="M652.34 642.51L509.13 545.14" stroke="hsl(0, 0%, 0%)" stroke-width="1.5"></path><path d="M652.34 642.51L792.84 500.75" stroke="hsl(0, 0%, 0%)" stroke-width="1.5"></path><path d="M652.34 642.51L854.65 674.35" stroke="hsl(0, 0%, 0%)" stroke-width="1.5"></path><path d="M1113.22 513.93L1113.22 513.93" stroke="hsl(0, 0%, 0%)" stroke-width="1.5"></path><path d="M1113.22 513.93L988.31 488.33" stroke="hsl(0, 0%, 0%)" stroke-width="1.5"></path><path d="M1113.22 513.93L1115.88 365.87" stroke="hsl(0, 0%, 0%)" stroke-width="1.5"></path><path d="M1292.77 110.57L1292.77 110.57" stroke="hsl(0, 0%, 0%)" stroke-width="1.5"></path><path d="M1292.77 110.57L1298.17 243.58" stroke="hsl(0, 0%, 0%)" stroke-width="1.5"></path><path d="M1292.77 110.57L1431.22 73.47" stroke="hsl(0, 0%, 0%)" stroke-width="1.5"></path><path d="M1292.77 110.57L1160.84 51.87" stroke="hsl(0, 0%, 0%)" stroke-width="1.5"></path><path d="M1292.77 110.57L1451.24 218.47" stroke="hsl(0, 0%, 0%)" stroke-width="1.5"></path><path d="M1565.32 210.53L1565.32 210.53" stroke="hsl(0, 0%, 0%)" stroke-width="1.5"></path><path d="M1565.32 210.53L1451.24 218.47" stroke="hsl(0, 0%, 0%)" stroke-width="1.5"></path><path d="M1565.32 210.53L1579.15 339.37" stroke="hsl(0, 0%, 0%)" stroke-width="1.5"></path><path d="M1565.32 210.53L1576.02 80.06" stroke="hsl(0, 0%, 0%)" stroke-width="1.5"></path><path d="M1565.32 210.53L1431.22 73.47" stroke="hsl(0, 0%, 0%)" stroke-width="1.5"></path><path d="M1565.32 210.53L1458.27 392.55" stroke="hsl(0, 0%, 0%)" stroke-width="1.5"></path><path d="M90.07 554.99L90.07 554.99" stroke="hsl(0, 0%, 0%)" stroke-width="1.5"></path><path d="M90.07 554.99L57.55 708.19" stroke="hsl(0, 0%, 0%)" stroke-width="1.5"></path><path d="M90.07 554.99L260.72 688.83" stroke="hsl(0, 0%, 0%)" stroke-width="1.5"></path><path d="M90.07 554.99L-103.7 654.86" stroke="hsl(0, 0%, 0%)" stroke-width="1.5"></path><path d="M90.07 554.99L351.49 676.08" stroke="hsl(0, 0%, 0%)" stroke-width="1.5"></path><path d="M90.07 554.99L509.13 545.14" stroke="hsl(0, 0%, 0%)" stroke-width="1.5"></path><path d="M57.55 708.19L57.55 708.19" stroke="hsl(0, 0%, 0%)" stroke-width="1.5"></path><path d="M57.55 708.19L260.72 688.83" stroke="hsl(0, 0%, 0%)" stroke-width="1.5"></path><path d="M57.55 708.19L237.78 488.24" stroke="hsl(0, 0%, 0%)" stroke-width="1.5"></path><path d="M57.55 708.19L351.49 676.08" stroke="hsl(0, 0%, 0%)" stroke-width="1.5"></path><path d="M57.55 708.19L509.13 545.14" stroke="hsl(0, 0%, 0%)" stroke-width="1.5"></path><path d="M351.49 676.08L351.49 676.08" stroke="hsl(0, 0%, 0%)" stroke-width="1.5"></path><path d="M509.13 545.14L509.13 545.14" stroke="hsl(0, 0%, 0%)" stroke-width="1.5"></path><path d="M509.13 545.14L706.54 527.91" stroke="hsl(0, 0%, 0%)" stroke-width="1.5"></path><path d="M509.13 545.14L351.49 676.08" stroke="hsl(0, 0%, 0%)" stroke-width="1.5"></path><path d="M509.13 545.14L237.78 488.24" stroke="hsl(0, 0%, 0%)" stroke-width="1.5"></path><path d="M509.13 545.14L260.72 688.83" stroke="hsl(0, 0%, 0%)" stroke-width="1.5"></path><path d="M509.13 545.14L792.84 500.75" stroke="hsl(0, 0%, 0%)" stroke-width="1.5"></path><path d="M706.54 527.91L706.54 527.91" stroke="hsl(0, 0%, 0%)" stroke-width="1.5"></path><path d="M706.54 527.91L792.84 500.75" stroke="hsl(0, 0%, 0%)" stroke-width="1.5"></path><path d="M706.54 527.91L854.65 674.35" stroke="hsl(0, 0%, 0%)" stroke-width="1.5"></path><path d="M706.54 527.91L858.99 343.74" stroke="hsl(0, 0%, 0%)" stroke-width="1.5"></path><path d="M706.54 527.91L988.31 488.33" stroke="hsl(0, 0%, 0%)" stroke-width="1.5"></path><path d="M858.99 343.74L858.99 343.74" stroke="hsl(0, 0%, 0%)" stroke-width="1.5"></path><path d="M858.99 343.74L983.16 406.18" stroke="hsl(0, 0%, 0%)" stroke-width="1.5"></path><path d="M858.99 343.74L792.84 500.75" stroke="hsl(0, 0%, 0%)" stroke-width="1.5"></path><path d="M858.99 343.74L988.31 488.33" stroke="hsl(0, 0%, 0%)" stroke-width="1.5"></path><path d="M858.99 343.74L1115.88 365.87" stroke="hsl(0, 0%, 0%)" stroke-width="1.5"></path><path d="M792.84 500.75L792.84 500.75" stroke="hsl(0, 0%, 0%)" stroke-width="1.5"></path><path d="M854.65 674.35L854.65 674.35" stroke="hsl(0, 0%, 0%)" stroke-width="1.5"></path><path d="M854.65 674.35L952.42 692.67" stroke="hsl(0, 0%, 0%)" stroke-width="1.5"></path><path d="M854.65 674.35L792.84 500.75" stroke="hsl(0, 0%, 0%)" stroke-width="1.5"></path><path d="M854.65 674.35L988.31 488.33" stroke="hsl(0, 0%, 0%)" stroke-width="1.5"></path><path d="M854.65 674.35L1089.73 700.23" stroke="hsl(0, 0%, 0%)" stroke-width="1.5"></path><path d="M983.16 406.18L983.16 406.18" stroke="hsl(0, 0%, 0%)" stroke-width="1.5"></path><path d="M983.16 406.18L988.31 488.33" stroke="hsl(0, 0%, 0%)" stroke-width="1.5"></path><path d="M983.16 406.18L1115.88 365.87" stroke="hsl(0, 0%, 0%)" stroke-width="1.5"></path><path d="M988.31 488.33L988.31 488.33" stroke="hsl(0, 0%, 0%)" stroke-width="1.5"></path><path d="M988.31 488.33L1115.88 365.87" stroke="hsl(0, 0%, 0%)" stroke-width="1.5"></path><path d="M988.31 488.33L792.84 500.75" stroke="hsl(0, 0%, 0%)" stroke-width="1.5"></path><path d="M988.31 488.33L952.42 692.67" stroke="hsl(0, 0%, 0%)" stroke-width="1.5"></path><path d="M952.42 692.67L952.42 692.67" stroke="hsl(0, 0%, 0%)" stroke-width="1.5"></path><path d="M952.42 692.67L1089.73 700.23" stroke="hsl(0, 0%, 0%)" stroke-width="1.5"></path><path d="M1160.84 51.87L1160.84 51.87" stroke="hsl(0, 0%, 0%)" stroke-width="1.5"></path><path d="M1160.84 51.87L1134.04 244.58" stroke="hsl(0, 0%, 0%)" stroke-width="1.5"></path><path d="M1160.84 51.87L1311.67 -110.08" stroke="hsl(0, 0%, 0%)" stroke-width="1.5"></path><path d="M1134.04 244.58L1134.04 244.58" stroke="hsl(0, 0%, 0%)" stroke-width="1.5"></path><path d="M1134.04 244.58L1115.88 365.87" stroke="hsl(0, 0%, 0%)" stroke-width="1.5"></path><path d="M1134.04 244.58L1298.17 243.58" stroke="hsl(0, 0%, 0%)" stroke-width="1.5"></path><path d="M1134.04 244.58L1286.96 342.88" stroke="hsl(0, 0%, 0%)" stroke-width="1.5"></path><path d="M1115.88 365.87L1115.88 365.87" stroke="hsl(0, 0%, 0%)" stroke-width="1.5"></path><path d="M1115.88 365.87L1286.96 342.88" stroke="hsl(0, 0%, 0%)" stroke-width="1.5"></path><path d="M1089.73 700.23L1089.73 700.23" stroke="hsl(0, 0%, 0%)" stroke-width="1.5"></path><path d="M1089.73 700.23L1113.22 513.93" stroke="hsl(0, 0%, 0%)" stroke-width="1.5"></path><path d="M1089.73 700.23L1293.26 661.05" stroke="hsl(0, 0%, 0%)" stroke-width="1.5"></path><path d="M1311.67 -110.08L1311.67 -110.08" stroke="hsl(0, 0%, 0%)" stroke-width="1.5"></path><path d="M1311.67 -110.08L1446.02 -51.12" stroke="hsl(0, 0%, 0%)" stroke-width="1.5"></path><path d="M1311.67 -110.08L1431.22 73.47" stroke="hsl(0, 0%, 0%)" stroke-width="1.5"></path><path d="M1298.17 243.58L1298.17 243.58" stroke="hsl(0, 0%, 0%)" stroke-width="1.5"></path><path d="M1298.17 243.58L1286.96 342.88" stroke="hsl(0, 0%, 0%)" stroke-width="1.5"></path><path d="M1298.17 243.58L1451.24 218.47" stroke="hsl(0, 0%, 0%)" stroke-width="1.5"></path><path d="M1286.96 342.88L1286.96 342.88" stroke="hsl(0, 0%, 0%)" stroke-width="1.5"></path><path d="M1280.45 522.66L1280.45 522.66" stroke="hsl(0, 0%, 0%)" stroke-width="1.5"></path><path d="M1280.45 522.66L1410.91 538.09" stroke="hsl(0, 0%, 0%)" stroke-width="1.5"></path><path d="M1280.45 522.66L1293.26 661.05" stroke="hsl(0, 0%, 0%)" stroke-width="1.5"></path><path d="M1293.26 661.05L1293.26 661.05" stroke="hsl(0, 0%, 0%)" stroke-width="1.5"></path><path d="M1293.26 661.05L1445.97 680.6" stroke="hsl(0, 0%, 0%)" stroke-width="1.5"></path><path d="M1293.26 661.05L1410.91 538.09" stroke="hsl(0, 0%, 0%)" stroke-width="1.5"></path><path d="M1446.02 -51.12L1446.02 -51.12" stroke="hsl(0, 0%, 0%)" stroke-width="1.5"></path><path d="M1446.02 -51.12L1557.8 -38.3" stroke="hsl(0, 0%, 0%)" stroke-width="1.5"></path><path d="M1446.02 -51.12L1431.22 73.47" stroke="hsl(0, 0%, 0%)" stroke-width="1.5"></path><path d="M1431.22 73.47L1431.22 73.47" stroke="hsl(0, 0%, 0%)" stroke-width="1.5"></path><path d="M1431.22 73.47L1576.02 80.06" stroke="hsl(0, 0%, 0%)" stroke-width="1.5"></path><path d="M1431.22 73.47L1451.24 218.47" stroke="hsl(0, 0%, 0%)" stroke-width="1.5"></path><path d="M1431.22 73.47L1557.8 -38.3" stroke="hsl(0, 0%, 0%)" stroke-width="1.5"></path><path d="M1451.24 218.47L1451.24 218.47" stroke="hsl(0, 0%, 0%)" stroke-width="1.5"></path><path d="M1458.27 392.55L1458.27 392.55" stroke="hsl(0, 0%, 0%)" stroke-width="1.5"></path><path d="M1458.27 392.55L1579.15 339.37" stroke="hsl(0, 0%, 0%)" stroke-width="1.5"></path><path d="M1458.27 392.55L1545.74 513.68" stroke="hsl(0, 0%, 0%)" stroke-width="1.5"></path><path d="M1458.27 392.55L1410.91 538.09" stroke="hsl(0, 0%, 0%)" stroke-width="1.5"></path><path d="M1458.27 392.55L1451.24 218.47" stroke="hsl(0, 0%, 0%)" stroke-width="1.5"></path><path d="M1458.27 392.55L1286.96 342.88" stroke="hsl(0, 0%, 0%)" stroke-width="1.5"></path><path d="M1410.91 538.09L1410.91 538.09" stroke="hsl(0, 0%, 0%)" stroke-width="1.5"></path><path d="M1445.97 680.6L1445.97 680.6" stroke="hsl(0, 0%, 0%)" stroke-width="1.5"></path><path d="M1445.97 680.6L1410.91 538.09" stroke="hsl(0, 0%, 0%)" stroke-width="1.5"></path><path d="M1445.97 680.6L1598.11 672.71" stroke="hsl(0, 0%, 0%)" stroke-width="1.5"></path><path d="M1557.8 -38.3L1557.8 -38.3" stroke="hsl(0, 0%, 0%)" stroke-width="1.5"></path><path d="M1557.8 -38.3L1576.02 80.06" stroke="hsl(0, 0%, 0%)" stroke-width="1.5"></path><path d="M1557.8 -38.3L1565.32 210.53" stroke="hsl(0, 0%, 0%)" stroke-width="1.5"></path><path d="M1557.8 -38.3L1311.67 -110.08" stroke="hsl(0, 0%, 0%)" stroke-width="1.5"></path><path d="M1576.02 80.06L1576.02 80.06" stroke="hsl(0, 0%, 0%)" stroke-width="1.5"></path><path d="M1576.02 80.06L1446.02 -51.12" stroke="hsl(0, 0%, 0%)" stroke-width="1.5"></path><path d="M1576.02 80.06L1451.24 218.47" stroke="hsl(0, 0%, 0%)" stroke-width="1.5"></path><path d="M1579.15 339.37L1579.15 339.37" stroke="hsl(0, 0%, 0%)" stroke-width="1.5"></path><path d="M1579.15 339.37L1451.24 218.47" stroke="hsl(0, 0%, 0%)" stroke-width="1.5"></path><path d="M1579.15 339.37L1545.74 513.68" stroke="hsl(0, 0%, 0%)" stroke-width="1.5"></path><path d="M1579.15 339.37L1576.02 80.06" stroke="hsl(0, 0%, 0%)" stroke-width="1.5"></path><path d="M1579.15 339.37L1410.91 538.09" stroke="hsl(0, 0%, 0%)" stroke-width="1.5"></path><path d="M1545.74 513.68L1545.74 513.68" stroke="hsl(0, 0%, 0%)" stroke-width="1.5"></path><path d="M1545.74 513.68L1410.91 538.09" stroke="hsl(0, 0%, 0%)" stroke-width="1.5"></path><path d="M1545.74 513.68L1598.11 672.71" stroke="hsl(0, 0%, 0%)" stroke-width="1.5"></path><path d="M1598.11 672.71L1598.11 672.71" stroke="hsl(0, 0%, 0%)" stroke-width="1.5"></path><path d="M1598.11 672.71L1410.91 538.09" stroke="hsl(0, 0%, 0%)" stroke-width="1.5"></path><circle r="25" cx="-103.7" cy="654.86" fill="url(#SvgjsRadialGradient1017)"></circle><circle r="25" cx="237.78" cy="488.24" fill="url(#SvgjsRadialGradient1017)"></circle><circle r="25" cx="260.72" cy="688.83" fill="url(#SvgjsRadialGradient1017)"></circle><circle r="25" cx="652.34" cy="642.51" fill="url(#SvgjsRadialGradient1017)"></circle><circle r="25" cx="1113.22" cy="513.93" fill="url(#SvgjsRadialGradient1017)"></circle><circle r="25" cx="1292.77" cy="110.57" fill="url(#SvgjsRadialGradient1017)"></circle><circle r="25" cx="1565.32" cy="210.53" fill="url(#SvgjsRadialGradient1017)"></circle><circle r="5" cx="90.07" cy="554.99" fill="#808080"></circle><circle r="5" cx="57.55" cy="708.19" fill="#808080"></circle><circle r="5" cx="351.49" cy="676.08" fill="#808080"></circle><circle r="5" cx="509.13" cy="545.14" fill="#808080"></circle><circle r="5" cx="706.54" cy="527.91" fill="#808080"></circle><circle r="5" cx="858.99" cy="343.74" fill="#808080"></circle><circle r="5" cx="792.84" cy="500.75" fill="#808080"></circle><circle r="5" cx="854.65" cy="674.35" fill="#808080"></circle><circle r="5" cx="983.16" cy="406.18" fill="#808080"></circle><circle r="5" cx="988.31" cy="488.33" fill="#808080"></circle><circle r="5" cx="952.42" cy="692.67" fill="#808080"></circle><circle r="5" cx="1160.84" cy="51.87" fill="#808080"></circle><circle r="5" cx="1134.04" cy="244.58" fill="#808080"></circle><circle r="5" cx="1115.88" cy="365.87" fill="#808080"></circle><circle r="5" cx="1089.73" cy="700.23" fill="#808080"></circle><circle r="5" cx="1311.67" cy="-110.08" fill="#808080"></circle><circle r="5" cx="1298.17" cy="243.58" fill="#808080"></circle><circle r="5" cx="1286.96" cy="342.88" fill="#808080"></circle><circle r="5" cx="1280.45" cy="522.66" fill="#808080"></circle><circle r="5" cx="1293.26" cy="661.05" fill="#808080"></circle><circle r="5" cx="1446.02" cy="-51.12" fill="#808080"></circle><circle r="5" cx="1431.22" cy="73.47" fill="#808080"></circle><circle r="5" cx="1451.24" cy="218.47" fill="#808080"></circle><circle r="5" cx="1458.27" cy="392.55" fill="#808080"></circle><circle r="5" cx="1410.91" cy="538.09" fill="#808080"></circle><circle r="5" cx="1445.97" cy="680.6" fill="#808080"></circle><circle r="5" cx="1557.8" cy="-38.3" fill="#808080"></circle><circle r="5" cx="1576.02" cy="80.06" fill="#808080"></circle><circle r="5" cx="1579.15" cy="339.37" fill="#808080"></circle><circle r="5" cx="1545.74" cy="513.68" fill="#808080"></circle><circle r="5" cx="1598.11" cy="672.71" fill="#808080"></circle></g><defs><mask id="SvgjsMask1016"><rect width="1440" height="560" fill="#ffffff"></rect></mask><radialGradient id="SvgjsRadialGradient1017"><stop stop-color="#ffffff" offset="0.1"></stop><stop stop-color="rgba(0, 0, 0, 1)" offset="0.2"></stop><stop stop-color="rgba(0, 0, 0, 0)" offset="1"></stop></radialGradient></defs></svg>